<svg xmlns="http://www.w3.org/2000/svg" xmlns:xlink="http://www.w3.org/1999/xlink" width="2560" height="1440" viewBox="0 0 2560 1440">
  <defs>
    <radialGradient id="coreGlow" cx="50%" cy="50%" r="50%">
      <stop offset="0%" stop-color="#d9ff5f" stop-opacity="0.19"/>
      <stop offset="42%" stop-color="#51dfff" stop-opacity="0.09"/>
      <stop offset="100%" stop-color="#051018" stop-opacity="0"/>
    </radialGradient>
    <linearGradient id="scan" x1="0" y1="0" x2="1" y2="1">
      <stop offset="0%" stop-color="#8ce8ff" stop-opacity="0"/>
      <stop offset="48%" stop-color="#8ce8ff" stop-opacity="0.18"/>
      <stop offset="100%" stop-color="#d9ff5f" stop-opacity="0"/>
    </linearGradient>
  </defs>
  <rect width="2560" height="1440" fill="#071016"/>
  <image x="0" y="0" width="2560" height="1440" preserveAspectRatio="xMidYMid slice" opacity="0.89" xlink:href="/ai-core-style-frame.jpg"/>
  <rect width="2560" height="1440" fill="#050b11" opacity="0.18"/>
  <g transform="translate(1280 720) scale(0.9187) translate(-1280 -720)">
    <circle cx="1280" cy="720" r="580" fill="url(#coreGlow)"/>
    <g transform="rotate(-6.96 1280 720)" fill="none">
      <ellipse cx="1280" cy="720" rx="310" ry="170" stroke="#8ce8ff" stroke-width="3" opacity="0.35"/>
      <ellipse cx="1280" cy="720" rx="430" ry="235" stroke="#8ce8ff" stroke-width="2" stroke-dasharray="18 16" opacity="0.25"/>
      <ellipse cx="1280" cy="720" rx="590" ry="325" stroke="#d9ff5f" stroke-width="2" stroke-dasharray="5 28" opacity="0.18"/>
      <ellipse cx="1280" cy="720" rx="720" ry="400" stroke="url(#scan)" stroke-width="4" opacity="0.23"/>
    </g>
    <g><line x1="1529.3" y1="730.1" x2="1998.1" y2="749.0" stroke="#d9ff5f" stroke-width="2" opacity="0.13"/><line x1="1443.4" y1="824.1" x2="1750.5" y2="1019.7" stroke="#8ce8ff" stroke-width="2" opacity="0.13"/><line x1="1261.7" y1="857.1" x2="1227.3" y2="1114.9" stroke="#8ce8ff" stroke-width="2" opacity="0.13"/><line x1="1090.8" y1="809.9" x2="735.0" y2="978.8" stroke="#d9ff5f" stroke-width="2" opacity="0.13"/><line x1="1030.7" y1="709.9" x2="561.9" y2="691.0" stroke="#8ce8ff" stroke-width="2" opacity="0.13"/><line x1="1116.6" y1="615.9" x2="809.5" y2="420.3" stroke="#8ce8ff" stroke-width="2" opacity="0.13"/><line x1="1298.3" y1="582.9" x2="1332.7" y2="325.1" stroke="#d9ff5f" stroke-width="2" opacity="0.13"/><line x1="1469.2" y1="630.1" x2="1825.0" y2="461.2" stroke="#8ce8ff" stroke-width="2" opacity="0.13"/><circle cx="1551.5" cy="727.8" r="2" fill="#d9ff5f" opacity="0.58"/><circle cx="1640.8" cy="770.8" r="3" fill="#8ce8ff" opacity="0.56"/><circle cx="1693.3" cy="829.6" r="4" fill="#8ce8ff" opacity="0.43"/><circle cx="1711.3" cy="899.4" r="2" fill="#8ce8ff" opacity="0.31"/><circle cx="1724.2" cy="967.3" r="3" fill="#8ce8ff" opacity="0.31"/><circle cx="1685.0" cy="1059.4" r="4" fill="#d9ff5f" opacity="0.44"/><circle cx="1388.4" cy="868.2" r="2" fill="#8ce8ff" opacity="0.57"/><circle cx="1352.3" cy="933.6" r="3" fill="#8ce8ff" opacity="0.58"/><circle cx="1299.4" cy="986.5" r="4" fill="#8ce8ff" opacity="0.47"/><circle cx="1190.7" cy="1027.7" r="2" fill="#8ce8ff" opacity="0.33"/><circle cx="1051.6" cy="1057.2" r="3" fill="#d9ff5f" opacity="0.30"/><circle cx="881.4" cy="1073.5" r="4" fill="#8ce8ff" opacity="0.40"/><circle cx="1081.6" cy="849.8" r="2" fill="#8ce8ff" opacity="0.54"/><circle cx="954.6" cy="862.8" r="3" fill="#8ce8ff" opacity="0.59"/><circle cx="826.2" cy="848.3" r="4" fill="#8ce8ff" opacity="0.51"/><circle cx="709.6" cy="809.0" r="2" fill="#d9ff5f" opacity="0.36"/><circle cx="608.4" cy="769.2" r="3" fill="#8ce8ff" opacity="0.29"/><circle cx="506.3" cy="691.9" r="4" fill="#8ce8ff" opacity="0.36"/><circle cx="965.5" cy="673.2" r="2" fill="#8ce8ff" opacity="0.50"/><circle cx="889.5" cy="612.9" r="3" fill="#8ce8ff" opacity="0.59"/><circle cx="840.8" cy="552.3" r="4" fill="#d9ff5f" opacity="0.54"/><circle cx="850.7" cy="474.4" r="2" fill="#8ce8ff" opacity="0.40"/><circle cx="902.8" cy="394.4" r="3" fill="#8ce8ff" opacity="0.30"/><circle cx="993.1" cy="311.9" r="4" fill="#8ce8ff" opacity="0.33"/><circle cx="1203.4" cy="535.9" r="2" fill="#8ce8ff" opacity="0.46"/><circle cx="1267.9" cy="469.6" r="3" fill="#d9ff5f" opacity="0.58"/><circle cx="1375.4" cy="417.7" r="4" fill="#8ce8ff" opacity="0.57"/><circle cx="1513.7" cy="388.9" r="2" fill="#8ce8ff" opacity="0.44"/><circle cx="1637.9" cy="371.7" r="3" fill="#8ce8ff" opacity="0.32"/><circle cx="1448.0" cy="613.1" r="4" fill="#8ce8ff" opacity="0.30"/><circle cx="1565.4" cy="598.2" r="2" fill="#d9ff5f" opacity="0.42"/><circle cx="1704.0" cy="604.1" r="3" fill="#8ce8ff" opacity="0.55"/><circle cx="1830.9" cy="620.5" r="4" fill="#8ce8ff" opacity="0.59"/><circle cx="1946.8" cy="676.2" r="2" fill="#8ce8ff" opacity="0.49"/></g>
  </g>
  <path d="M 120 1280 H 720 M 1840 1280 H 2440" stroke="#8ce8ff" stroke-width="2" opacity="0.24"/>
  <path d="M 120 160 H 520 M 2040 160 H 2440" stroke="#d9ff5f" stroke-width="2" opacity="0.18"/>
</svg>
