<svg xmlns="http://www.w3.org/2000/svg" xmlns:xlink="http://www.w3.org/1999/xlink" width="2560" height="1440" viewBox="0 0 2560 1440">
  <defs>
    <radialGradient id="coreGlow" cx="50%" cy="50%" r="50%">
      <stop offset="0%" stop-color="#d9ff5f" stop-opacity="0.22"/>
      <stop offset="42%" stop-color="#51dfff" stop-opacity="0.10"/>
      <stop offset="100%" stop-color="#051018" stop-opacity="0"/>
    </radialGradient>
    <linearGradient id="scan" x1="0" y1="0" x2="1" y2="1">
      <stop offset="0%" stop-color="#8ce8ff" stop-opacity="0"/>
      <stop offset="48%" stop-color="#8ce8ff" stop-opacity="0.20"/>
      <stop offset="100%" stop-color="#d9ff5f" stop-opacity="0"/>
    </linearGradient>
  </defs>
  <rect width="2560" height="1440" fill="#071016"/>
  <image x="0" y="0" width="2560" height="1440" preserveAspectRatio="xMidYMid slice" opacity="0.91" xlink:href="/ai-core-style-frame.jpg"/>
  <rect width="2560" height="1440" fill="#050b11" opacity="0.18"/>
  <g transform="translate(1280 720) scale(0.9347) translate(-1280 -720)">
    <circle cx="1280" cy="720" r="580" fill="url(#coreGlow)"/>
    <g transform="rotate(-5.92 1280 720)" fill="none">
      <ellipse cx="1280" cy="720" rx="310" ry="170" stroke="#8ce8ff" stroke-width="3" opacity="0.40"/>
      <ellipse cx="1280" cy="720" rx="430" ry="235" stroke="#8ce8ff" stroke-width="2" stroke-dasharray="18 16" opacity="0.29"/>
      <ellipse cx="1280" cy="720" rx="590" ry="325" stroke="#d9ff5f" stroke-width="2" stroke-dasharray="5 28" opacity="0.21"/>
      <ellipse cx="1280" cy="720" rx="720" ry="400" stroke="url(#scan)" stroke-width="4" opacity="0.27"/>
    </g>
    <g><line x1="1528.6" y1="734.5" x2="1996.0" y2="761.7" stroke="#d9ff5f" stroke-width="2" opacity="0.15"/><line x1="1437.2" y1="826.9" x2="1732.7" y2="1027.9" stroke="#8ce8ff" stroke-width="2" opacity="0.15"/><line x1="1253.7" y1="856.7" x2="1204.2" y2="1113.8" stroke="#8ce8ff" stroke-width="2" opacity="0.15"/><line x1="1085.6" y1="806.5" x2="720.1" y2="969.0" stroke="#d9ff5f" stroke-width="2" opacity="0.15"/><line x1="1031.4" y1="705.5" x2="564.0" y2="678.3" stroke="#8ce8ff" stroke-width="2" opacity="0.15"/><line x1="1122.8" y1="613.1" x2="827.3" y2="412.1" stroke="#8ce8ff" stroke-width="2" opacity="0.15"/><line x1="1306.3" y1="583.3" x2="1355.8" y2="326.2" stroke="#d9ff5f" stroke-width="2" opacity="0.15"/><line x1="1474.4" y1="633.5" x2="1839.9" y2="471.0" stroke="#8ce8ff" stroke-width="2" opacity="0.15"/><circle cx="1554.2" cy="731.4" r="2" fill="#d9ff5f" opacity="0.69"/><circle cx="1635.5" cy="776.2" r="3" fill="#8ce8ff" opacity="0.59"/><circle cx="1680.9" cy="835.9" r="4" fill="#8ce8ff" opacity="0.45"/><circle cx="1694.7" cy="907.7" r="2" fill="#8ce8ff" opacity="0.39"/><circle cx="1715.0" cy="973.6" r="3" fill="#8ce8ff" opacity="0.47"/><circle cx="1670.0" cy="1068.3" r="4" fill="#d9ff5f" opacity="0.62"/><circle cx="1380.4" cy="872.4" r="2" fill="#8ce8ff" opacity="0.69"/><circle cx="1336.2" cy="934.5" r="3" fill="#8ce8ff" opacity="0.63"/><circle cx="1288.2" cy="983.7" r="4" fill="#8ce8ff" opacity="0.49"/><circle cx="1175.4" cy="1023.6" r="2" fill="#8ce8ff" opacity="0.39"/><circle cx="1030.2" cy="1052.6" r="3" fill="#d9ff5f" opacity="0.44"/><circle cx="852.6" cy="1066.5" r="4" fill="#8ce8ff" opacity="0.58"/><circle cx="1072.8" cy="849.4" r="2" fill="#8ce8ff" opacity="0.68"/><circle cx="946.6" cy="857.7" r="3" fill="#8ce8ff" opacity="0.66"/><circle cx="822.4" cy="838.5" r="4" fill="#8ce8ff" opacity="0.53"/><circle cx="708.8" cy="795.4" r="2" fill="#d9ff5f" opacity="0.41"/><circle cx="608.0" cy="760.6" r="3" fill="#8ce8ff" opacity="0.41"/><circle cx="504.1" cy="679.4" r="4" fill="#8ce8ff" opacity="0.54"/><circle cx="963.2" cy="666.2" r="2" fill="#8ce8ff" opacity="0.66"/><circle cx="895.8" cy="603.6" r="3" fill="#8ce8ff" opacity="0.68"/><circle cx="850.6" cy="547.9" r="4" fill="#d9ff5f" opacity="0.57"/><circle cx="867.8" cy="470.0" r="2" fill="#8ce8ff" opacity="0.43"/><circle cx="925.2" cy="388.7" r="3" fill="#8ce8ff" opacity="0.40"/><circle cx="1022.9" cy="304.4" r="4" fill="#8ce8ff" opacity="0.49"/><circle cx="1210.0" cy="531.9" r="2" fill="#8ce8ff" opacity="0.64"/><circle cx="1281.1" cy="467.5" r="3" fill="#d9ff5f" opacity="0.69"/><circle cx="1394.2" cy="420.7" r="4" fill="#8ce8ff" opacity="0.61"/><circle cx="1535.9" cy="397.3" r="2" fill="#8ce8ff" opacity="0.47"/><circle cx="1650.1" cy="378.3" r="3" fill="#8ce8ff" opacity="0.39"/><circle cx="1454.3" cy="615.4" r="4" fill="#8ce8ff" opacity="0.46"/><circle cx="1577.4" cy="602.1" r="2" fill="#d9ff5f" opacity="0.60"/><circle cx="1716.7" cy="612.6" r="3" fill="#8ce8ff" opacity="0.69"/><circle cx="1834.7" cy="627.5" r="4" fill="#8ce8ff" opacity="0.64"/><circle cx="1943.8" cy="687.1" r="2" fill="#8ce8ff" opacity="0.50"/></g>
  </g>
  <path d="M 120 1280 H 720 M 1840 1280 H 2440" stroke="#8ce8ff" stroke-width="2" opacity="0.27"/>
  <path d="M 120 160 H 520 M 2040 160 H 2440" stroke="#d9ff5f" stroke-width="2" opacity="0.21"/>
</svg>
