<svg xmlns="http://www.w3.org/2000/svg" xmlns:xlink="http://www.w3.org/1999/xlink" width="2560" height="1440" viewBox="0 0 2560 1440">
  <defs>
    <radialGradient id="coreGlow" cx="50%" cy="50%" r="50%">
      <stop offset="0%" stop-color="#d9ff5f" stop-opacity="0.13"/>
      <stop offset="42%" stop-color="#51dfff" stop-opacity="0.06"/>
      <stop offset="100%" stop-color="#051018" stop-opacity="0"/>
    </radialGradient>
    <linearGradient id="scan" x1="0" y1="0" x2="1" y2="1">
      <stop offset="0%" stop-color="#8ce8ff" stop-opacity="0"/>
      <stop offset="48%" stop-color="#8ce8ff" stop-opacity="0.13"/>
      <stop offset="100%" stop-color="#d9ff5f" stop-opacity="0"/>
    </linearGradient>
  </defs>
  <rect width="2560" height="1440" fill="#071016"/>
  <image x="0" y="0" width="2560" height="1440" preserveAspectRatio="xMidYMid slice" opacity="0.85" xlink:href="/ai-core-style-frame.jpg"/>
  <rect width="2560" height="1440" fill="#050b11" opacity="0.18"/>
  <g transform="translate(1280 720) scale(0.8847) translate(-1280 -720)">
    <circle cx="1280" cy="720" r="580" fill="url(#coreGlow)"/>
    <g transform="rotate(25.98 1280 720)" fill="none">
      <ellipse cx="1280" cy="720" rx="310" ry="170" stroke="#8ce8ff" stroke-width="3" opacity="0.24"/>
      <ellipse cx="1280" cy="720" rx="430" ry="235" stroke="#8ce8ff" stroke-width="2" stroke-dasharray="18 16" opacity="0.17"/>
      <ellipse cx="1280" cy="720" rx="590" ry="325" stroke="#d9ff5f" stroke-width="2" stroke-dasharray="5 28" opacity="0.12"/>
      <ellipse cx="1280" cy="720" rx="720" ry="400" stroke="url(#scan)" stroke-width="4" opacity="0.16"/>
    </g>
    <g><line x1="1472.6" y1="807.7" x2="1834.7" y2="972.4" stroke="#d9ff5f" stroke-width="2" opacity="0.09"/><line x1="1303.5" y1="856.9" x2="1347.7" y2="1114.2" stroke="#8ce8ff" stroke-width="2" opacity="0.09"/><line x1="1120.6" y1="825.9" x2="821.0" y2="1025.1" stroke="#8ce8ff" stroke-width="2" opacity="0.09"/><line x1="1031.1" y1="732.9" x2="563.2" y2="757.2" stroke="#d9ff5f" stroke-width="2" opacity="0.09"/><line x1="1087.4" y1="632.3" x2="725.3" y2="467.6" stroke="#8ce8ff" stroke-width="2" opacity="0.09"/><line x1="1256.5" y1="583.1" x2="1212.3" y2="325.8" stroke="#8ce8ff" stroke-width="2" opacity="0.09"/><line x1="1439.4" y1="614.1" x2="1739.0" y2="414.9" stroke="#d9ff5f" stroke-width="2" opacity="0.09"/><line x1="1528.9" y1="707.1" x2="1996.8" y2="682.8" stroke="#8ce8ff" stroke-width="2" opacity="0.09"/><circle cx="1523.0" cy="791.9" r="2" fill="#d9ff5f" opacity="0.13"/><circle cx="1532.5" cy="865.0" r="3" fill="#8ce8ff" opacity="0.27"/><circle cx="1474.6" cy="941.1" r="4" fill="#8ce8ff" opacity="0.37"/><circle cx="1353.4" cy="1011.5" r="2" fill="#8ce8ff" opacity="0.34"/><circle cx="1491.5" cy="1051.1" r="3" fill="#8ce8ff" opacity="0.21"/><circle cx="1298.5" cy="1132.5" r="4" fill="#d9ff5f" opacity="0.09"/><circle cx="1195.4" cy="876.9" r="2" fill="#8ce8ff" opacity="0.10"/><circle cx="1058.9" cy="897.1" r="3" fill="#8ce8ff" opacity="0.23"/><circle cx="1095.2" cy="959.5" r="4" fill="#8ce8ff" opacity="0.36"/><circle cx="914.3" cy="951.9" r="2" fill="#8ce8ff" opacity="0.37"/><circle cx="717.6" cy="906.8" r="3" fill="#d9ff5f" opacity="0.25"/><circle cx="532.4" cy="816.3" r="4" fill="#8ce8ff" opacity="0.12"/><circle cx="991.1" cy="792.9" r="2" fill="#8ce8ff" opacity="0.09"/><circle cx="867.6" cy="746.7" r="3" fill="#8ce8ff" opacity="0.19"/><circle cx="790.1" cy="666.5" r="4" fill="#8ce8ff" opacity="0.33"/><circle cx="771.5" cy="563.8" r="2" fill="#d9ff5f" opacity="0.38"/><circle cx="635.1" cy="606.8" r="3" fill="#8ce8ff" opacity="0.29"/><circle cx="641.8" cy="468.3" r="4" fill="#8ce8ff" opacity="0.15"/><circle cx="1079.9" cy="570.8" r="2" fill="#8ce8ff" opacity="0.08"/><circle cx="1141.0" cy="491.1" r="3" fill="#8ce8ff" opacity="0.15"/><circle cx="1017.5" cy="469.4" r="4" fill="#d9ff5f" opacity="0.29"/><circle cx="1153.6" cy="393.1" r="2" fill="#8ce8ff" opacity="0.38"/><circle cx="1352.2" cy="338.1" r="3" fill="#8ce8ff" opacity="0.33"/><circle cx="1605.1" cy="316.1" r="4" fill="#8ce8ff" opacity="0.19"/><circle cx="1356.4" cy="529.1" r="2" fill="#8ce8ff" opacity="0.09"/><circle cx="1512.9" cy="501.2" r="3" fill="#d9ff5f" opacity="0.12"/><circle cx="1691.9" cy="518.1" r="4" fill="#8ce8ff" opacity="0.25"/><circle cx="1859.9" cy="579.6" r="2" fill="#8ce8ff" opacity="0.37"/><circle cx="1868.4" cy="491.4" r="3" fill="#8ce8ff" opacity="0.36"/><circle cx="1529.7" cy="677.2" r="4" fill="#8ce8ff" opacity="0.23"/><circle cx="1653.2" cy="722.3" r="2" fill="#d9ff5f" opacity="0.10"/><circle cx="1736.8" cy="804.5" r="3" fill="#8ce8ff" opacity="0.09"/><circle cx="1852.5" cy="759.3" r="4" fill="#8ce8ff" opacity="0.21"/><circle cx="1877.9" cy="873.7" r="2" fill="#8ce8ff" opacity="0.34"/></g>
  </g>
  <path d="M 120 1280 H 720 M 1840 1280 H 2440" stroke="#8ce8ff" stroke-width="2" opacity="0.17"/>
  <path d="M 120 160 H 520 M 2040 160 H 2440" stroke="#d9ff5f" stroke-width="2" opacity="0.13"/>
</svg>
