<svg xmlns="http://www.w3.org/2000/svg" xmlns:xlink="http://www.w3.org/1999/xlink" width="2560" height="1440" viewBox="0 0 2560 1440">
  <defs>
    <radialGradient id="coreGlow" cx="50%" cy="50%" r="50%">
      <stop offset="0%" stop-color="#d9ff5f" stop-opacity="0.28"/>
      <stop offset="42%" stop-color="#51dfff" stop-opacity="0.12"/>
      <stop offset="100%" stop-color="#051018" stop-opacity="0"/>
    </radialGradient>
    <linearGradient id="scan" x1="0" y1="0" x2="1" y2="1">
      <stop offset="0%" stop-color="#8ce8ff" stop-opacity="0"/>
      <stop offset="48%" stop-color="#8ce8ff" stop-opacity="0.25"/>
      <stop offset="100%" stop-color="#d9ff5f" stop-opacity="0"/>
    </linearGradient>
  </defs>
  <rect width="2560" height="1440" fill="#071016"/>
  <image x="0" y="0" width="2560" height="1440" preserveAspectRatio="xMidYMid slice" opacity="0.95" xlink:href="/ai-core-style-frame.jpg"/>
  <rect width="2560" height="1440" fill="#050b11" opacity="0.18"/>
  <g transform="translate(1280 720) scale(0.9651) translate(-1280 -720)">
    <circle cx="1280" cy="720" r="580" fill="url(#coreGlow)"/>
    <g transform="rotate(-2.65 1280 720)" fill="none">
      <ellipse cx="1280" cy="720" rx="310" ry="170" stroke="#8ce8ff" stroke-width="3" opacity="0.50"/>
      <ellipse cx="1280" cy="720" rx="430" ry="235" stroke="#8ce8ff" stroke-width="2" stroke-dasharray="18 16" opacity="0.36"/>
      <ellipse cx="1280" cy="720" rx="590" ry="325" stroke="#d9ff5f" stroke-width="2" stroke-dasharray="5 28" opacity="0.26"/>
      <ellipse cx="1280" cy="720" rx="720" ry="400" stroke="url(#scan)" stroke-width="4" opacity="0.33"/>
    </g>
    <g><line x1="1526.1" y1="744.0" x2="1988.9" y2="789.2" stroke="#d9ff5f" stroke-width="2" opacity="0.19"/><line x1="1423.1" y1="832.7" x2="1692.3" y2="1044.7" stroke="#8ce8ff" stroke-width="2" opacity="0.19"/><line x1="1236.3" y1="855.4" x2="1154.1" y2="1109.9" stroke="#8ce8ff" stroke-width="2" opacity="0.19"/><line x1="1075.0" y1="798.7" x2="689.7" y2="946.7" stroke="#d9ff5f" stroke-width="2" opacity="0.19"/><line x1="1033.9" y1="696.0" x2="571.1" y2="650.8" stroke="#8ce8ff" stroke-width="2" opacity="0.19"/><line x1="1136.9" y1="607.3" x2="867.7" y2="395.3" stroke="#8ce8ff" stroke-width="2" opacity="0.19"/><line x1="1323.7" y1="584.6" x2="1405.9" y2="330.1" stroke="#d9ff5f" stroke-width="2" opacity="0.19"/><line x1="1485.0" y1="641.3" x2="1870.3" y2="493.3" stroke="#8ce8ff" stroke-width="2" opacity="0.19"/><circle cx="1552.3" cy="738.9" r="2" fill="#d9ff5f" opacity="0.75"/><circle cx="1618.2" cy="786.4" r="3" fill="#8ce8ff" opacity="0.62"/><circle cx="1654.2" cy="849.2" r="4" fill="#8ce8ff" opacity="0.59"/><circle cx="1661.7" cy="926.8" r="2" fill="#8ce8ff" opacity="0.69"/><circle cx="1697.6" cy="989.4" r="3" fill="#8ce8ff" opacity="0.83"/><circle cx="1634.7" cy="1087.0" r="4" fill="#d9ff5f" opacity="0.88"/><circle cx="1359.8" cy="877.8" r="2" fill="#8ce8ff" opacity="0.79"/><circle cx="1300.7" cy="931.7" r="3" fill="#8ce8ff" opacity="0.65"/><circle cx="1264.5" cy="976.8" r="4" fill="#8ce8ff" opacity="0.58"/><circle cx="1141.9" cy="1016.8" r="2" fill="#8ce8ff" opacity="0.65"/><circle cx="981.6" cy="1044.7" r="3" fill="#d9ff5f" opacity="0.80"/><circle cx="790.2" cy="1049.5" r="4" fill="#8ce8ff" opacity="0.88"/><circle cx="1056.8" cy="846.0" r="2" fill="#8ce8ff" opacity="0.83"/><circle cx="936.2" cy="844.2" r="3" fill="#8ce8ff" opacity="0.69"/><circle cx="819.0" cy="816.5" r="4" fill="#8ce8ff" opacity="0.59"/><circle cx="706.6" cy="766.4" r="2" fill="#d9ff5f" opacity="0.62"/><circle cx="601.1" cy="742.2" r="3" fill="#8ce8ff" opacity="0.76"/><circle cx="498.3" cy="651.4" r="4" fill="#8ce8ff" opacity="0.87"/><circle cx="963.1" cy="651.3" r="2" fill="#8ce8ff" opacity="0.86"/><circle cx="918.2" cy="585.9" r="3" fill="#8ce8ff" opacity="0.73"/><circle cx="875.9" cy="540.3" r="4" fill="#d9ff5f" opacity="0.60"/><circle cx="903.7" cy="460.6" r="2" fill="#8ce8ff" opacity="0.60"/><circle cx="971.9" cy="374.6" r="3" fill="#8ce8ff" opacity="0.71"/><circle cx="1088.8" cy="287.6" r="4" fill="#8ce8ff" opacity="0.85"/><circle cx="1225.6" cy="524.1" r="2" fill="#8ce8ff" opacity="0.87"/><circle cx="1310.2" cy="467.4" r="3" fill="#d9ff5f" opacity="0.77"/><circle cx="1432.6" cy="431.6" r="4" fill="#8ce8ff" opacity="0.63"/><circle cx="1581.6" cy="416.9" r="2" fill="#8ce8ff" opacity="0.58"/><circle cx="1679.2" cy="390.3" r="3" fill="#8ce8ff" opacity="0.67"/><circle cx="1472.2" cy="618.3" r="4" fill="#8ce8ff" opacity="0.82"/><circle cx="1603.4" cy="611.3" r="2" fill="#d9ff5f" opacity="0.88"/><circle cx="1736.8" cy="633.7" r="3" fill="#8ce8ff" opacity="0.81"/><circle cx="1835.4" cy="643.9" r="4" fill="#8ce8ff" opacity="0.67"/><circle cx="1933.8" cy="710.4" r="2" fill="#8ce8ff" opacity="0.58"/></g>
  </g>
  <path d="M 120 1280 H 720 M 1840 1280 H 2440" stroke="#8ce8ff" stroke-width="2" opacity="0.34"/>
  <path d="M 120 160 H 520 M 2040 160 H 2440" stroke="#d9ff5f" stroke-width="2" opacity="0.26"/>
</svg>
