<svg xmlns="http://www.w3.org/2000/svg" xmlns:xlink="http://www.w3.org/1999/xlink" width="2560" height="1440" viewBox="0 0 2560 1440">
  <defs>
    <radialGradient id="coreGlow" cx="50%" cy="50%" r="50%">
      <stop offset="0%" stop-color="#d9ff5f" stop-opacity="0.25"/>
      <stop offset="42%" stop-color="#51dfff" stop-opacity="0.11"/>
      <stop offset="100%" stop-color="#051018" stop-opacity="0"/>
    </radialGradient>
    <linearGradient id="scan" x1="0" y1="0" x2="1" y2="1">
      <stop offset="0%" stop-color="#8ce8ff" stop-opacity="0"/>
      <stop offset="48%" stop-color="#8ce8ff" stop-opacity="0.23"/>
      <stop offset="100%" stop-color="#d9ff5f" stop-opacity="0"/>
    </linearGradient>
  </defs>
  <rect width="2560" height="1440" fill="#071016"/>
  <image x="0" y="0" width="2560" height="1440" preserveAspectRatio="xMidYMid slice" opacity="0.93" xlink:href="/ai-core-style-frame.jpg"/>
  <rect width="2560" height="1440" fill="#050b11" opacity="0.18"/>
  <g transform="translate(1280 720) scale(0.9508) translate(-1280 -720)">
    <circle cx="1280" cy="720" r="580" fill="url(#coreGlow)"/>
    <g transform="rotate(22.44 1280 720)" fill="none">
      <ellipse cx="1280" cy="720" rx="310" ry="170" stroke="#8ce8ff" stroke-width="3" opacity="0.46"/>
      <ellipse cx="1280" cy="720" rx="430" ry="235" stroke="#8ce8ff" stroke-width="2" stroke-dasharray="18 16" opacity="0.33"/>
      <ellipse cx="1280" cy="720" rx="590" ry="325" stroke="#d9ff5f" stroke-width="2" stroke-dasharray="5 28" opacity="0.24"/>
      <ellipse cx="1280" cy="720" rx="720" ry="400" stroke="url(#scan)" stroke-width="4" opacity="0.30"/>
    </g>
    <g><line x1="1491.9" y1="793.0" x2="1890.2" y2="930.2" stroke="#d9ff5f" stroke-width="2" opacity="0.17"/><line x1="1336.0" y1="854.0" x2="1441.3" y2="1105.9" stroke="#8ce8ff" stroke-width="2" opacity="0.17"/><line x1="1147.3" y1="836.5" x2="897.9" y2="1055.6" stroke="#8ce8ff" stroke-width="2" opacity="0.17"/><line x1="1036.4" y1="750.8" x2="578.3" y2="808.7" stroke="#d9ff5f" stroke-width="2" opacity="0.17"/><line x1="1068.1" y1="647.0" x2="669.8" y2="509.8" stroke="#8ce8ff" stroke-width="2" opacity="0.17"/><line x1="1224.0" y1="586.0" x2="1118.7" y2="334.1" stroke="#8ce8ff" stroke-width="2" opacity="0.17"/><line x1="1412.7" y1="603.5" x2="1662.1" y2="384.4" stroke="#d9ff5f" stroke-width="2" opacity="0.17"/><line x1="1523.6" y1="689.2" x2="1981.7" y2="631.3" stroke="#8ce8ff" stroke-width="2" opacity="0.17"/><circle cx="1521.1" cy="776.0" r="2" fill="#d9ff5f" opacity="0.62"/><circle cx="1566.8" cy="849.7" r="3" fill="#8ce8ff" opacity="0.50"/><circle cx="1541.7" cy="933.2" r="4" fill="#8ce8ff" opacity="0.52"/><circle cx="1445.7" cy="1009.3" r="2" fill="#8ce8ff" opacity="0.65"/><circle cx="1545.8" cy="1037.1" r="3" fill="#8ce8ff" opacity="0.77"/><circle cx="1384.3" cy="1117.5" r="4" fill="#d9ff5f" opacity="0.78"/><circle cx="1239.6" cy="872.0" r="2" fill="#8ce8ff" opacity="0.66"/><circle cx="1115.7" cy="915.0" r="3" fill="#8ce8ff" opacity="0.53"/><circle cx="1131.4" cy="977.7" r="4" fill="#8ce8ff" opacity="0.50"/><circle cx="955.6" cy="983.1" r="2" fill="#8ce8ff" opacity="0.60"/><circle cx="769.5" cy="950.0" r="3" fill="#d9ff5f" opacity="0.74"/><circle cx="587.5" cy="879.9" r="4" fill="#8ce8ff" opacity="0.79"/><circle cx="1023.0" cy="801.8" r="2" fill="#8ce8ff" opacity="0.70"/><circle cx="882.0" cy="772.6" r="3" fill="#8ce8ff" opacity="0.56"/><circle cx="766.7" cy="705.0" r="4" fill="#8ce8ff" opacity="0.49"/><circle cx="710.9" cy="608.7" r="2" fill="#d9ff5f" opacity="0.56"/><circle cx="610.0" cy="639.6" r="3" fill="#8ce8ff" opacity="0.71"/><circle cx="602.7" cy="514.8" r="4" fill="#8ce8ff" opacity="0.79"/><circle cx="1058.6" cy="596.6" r="2" fill="#8ce8ff" opacity="0.74"/><circle cx="1079.0" cy="512.7" r="3" fill="#8ce8ff" opacity="0.60"/><circle cx="970.4" cy="479.9" r="4" fill="#d9ff5f" opacity="0.50"/><circle cx="1077.2" cy="392.3" r="2" fill="#8ce8ff" opacity="0.53"/><circle cx="1251.9" cy="328.6" r="3" fill="#8ce8ff" opacity="0.67"/><circle cx="1476.5" cy="295.4" r="4" fill="#8ce8ff" opacity="0.78"/><circle cx="1320.8" cy="537.5" r="2" fill="#8ce8ff" opacity="0.77"/><circle cx="1457.7" cy="495.8" r="3" fill="#d9ff5f" opacity="0.64"/><circle cx="1637.6" cy="486.4" r="4" fill="#8ce8ff" opacity="0.51"/><circle cx="1826.0" cy="522.3" r="2" fill="#8ce8ff" opacity="0.51"/><circle cx="1840.5" cy="455.4" r="3" fill="#8ce8ff" opacity="0.63"/><circle cx="1518.4" cy="661.4" r="4" fill="#8ce8ff" opacity="0.76"/><circle cx="1631.5" cy="694.4" r="2" fill="#d9ff5f" opacity="0.78"/><circle cx="1736.5" cy="759.7" r="3" fill="#8ce8ff" opacity="0.68"/><circle cx="1854.0" cy="729.5" r="4" fill="#8ce8ff" opacity="0.54"/><circle cx="1922.8" cy="836.6" r="2" fill="#8ce8ff" opacity="0.49"/></g>
  </g>
  <path d="M 120 1280 H 720 M 1840 1280 H 2440" stroke="#8ce8ff" stroke-width="2" opacity="0.31"/>
  <path d="M 120 160 H 520 M 2040 160 H 2440" stroke="#d9ff5f" stroke-width="2" opacity="0.24"/>
</svg>
