<svg xmlns="http://www.w3.org/2000/svg" xmlns:xlink="http://www.w3.org/1999/xlink" width="2560" height="1440" viewBox="0 0 2560 1440">
  <defs>
    <radialGradient id="coreGlow" cx="50%" cy="50%" r="50%">
      <stop offset="0%" stop-color="#d9ff5f" stop-opacity="0.20"/>
      <stop offset="42%" stop-color="#51dfff" stop-opacity="0.09"/>
      <stop offset="100%" stop-color="#051018" stop-opacity="0"/>
    </radialGradient>
    <linearGradient id="scan" x1="0" y1="0" x2="1" y2="1">
      <stop offset="0%" stop-color="#8ce8ff" stop-opacity="0"/>
      <stop offset="48%" stop-color="#8ce8ff" stop-opacity="0.19"/>
      <stop offset="100%" stop-color="#d9ff5f" stop-opacity="0"/>
    </linearGradient>
  </defs>
  <rect width="2560" height="1440" fill="#071016"/>
  <image x="0" y="0" width="2560" height="1440" preserveAspectRatio="xMidYMid slice" opacity="0.90" xlink:href="/ai-core-style-frame.jpg"/>
  <rect width="2560" height="1440" fill="#050b11" opacity="0.18"/>
  <g transform="translate(1280 720) scale(0.9261) translate(-1280 -720)">
    <circle cx="1280" cy="720" r="580" fill="url(#coreGlow)"/>
    <g transform="rotate(24.53 1280 720)" fill="none">
      <ellipse cx="1280" cy="720" rx="310" ry="170" stroke="#8ce8ff" stroke-width="3" opacity="0.37"/>
      <ellipse cx="1280" cy="720" rx="430" ry="235" stroke="#8ce8ff" stroke-width="2" stroke-dasharray="18 16" opacity="0.27"/>
      <ellipse cx="1280" cy="720" rx="590" ry="325" stroke="#d9ff5f" stroke-width="2" stroke-dasharray="5 28" opacity="0.19"/>
      <ellipse cx="1280" cy="720" rx="720" ry="400" stroke="url(#scan)" stroke-width="4" opacity="0.25"/>
    </g>
    <g><line x1="1484.6" y1="799.0" x2="1869.3" y2="947.5" stroke="#d9ff5f" stroke-width="2" opacity="0.14"/><line x1="1323.1" y1="855.4" x2="1404.1" y2="1110.1" stroke="#8ce8ff" stroke-width="2" opacity="0.14"/><line x1="1136.3" y1="832.5" x2="866.3" y2="1044.1" stroke="#8ce8ff" stroke-width="2" opacity="0.14"/><line x1="1033.7" y1="743.7" x2="570.8" y2="788.3" stroke="#d9ff5f" stroke-width="2" opacity="0.14"/><line x1="1075.4" y1="641.0" x2="690.7" y2="492.5" stroke="#8ce8ff" stroke-width="2" opacity="0.14"/><line x1="1236.9" y1="584.6" x2="1155.9" y2="329.9" stroke="#8ce8ff" stroke-width="2" opacity="0.14"/><line x1="1423.7" y1="607.5" x2="1693.7" y2="395.9" stroke="#d9ff5f" stroke-width="2" opacity="0.14"/><line x1="1526.3" y1="696.3" x2="1989.2" y2="651.7" stroke="#8ce8ff" stroke-width="2" opacity="0.14"/><circle cx="1525.0" cy="783.0" r="2" fill="#d9ff5f" opacity="0.36"/><circle cx="1556.4" cy="857.6" r="3" fill="#8ce8ff" opacity="0.36"/><circle cx="1515.5" cy="937.8" r="4" fill="#8ce8ff" opacity="0.48"/><circle cx="1407.9" cy="1009.9" r="2" fill="#8ce8ff" opacity="0.61"/><circle cx="1522.8" cy="1040.9" r="3" fill="#8ce8ff" opacity="0.63"/><circle cx="1350.5" cy="1123.1" r="4" fill="#d9ff5f" opacity="0.52"/><circle cx="1221.9" cy="875.5" r="2" fill="#8ce8ff" opacity="0.38"/><circle cx="1090.3" cy="910.5" r="3" fill="#8ce8ff" opacity="0.34"/><circle cx="1115.6" cy="971.8" r="4" fill="#8ce8ff" opacity="0.44"/><circle cx="939.0" cy="970.2" r="2" fill="#8ce8ff" opacity="0.58"/><circle cx="750.6" cy="931.8" r="3" fill="#d9ff5f" opacity="0.64"/><circle cx="565.9" cy="854.7" r="4" fill="#8ce8ff" opacity="0.56"/><circle cx="1009.2" cy="798.8" r="2" fill="#8ce8ff" opacity="0.42"/><circle cx="871.8" cy="762.8" r="3" fill="#8ce8ff" opacity="0.34"/><circle cx="771.7" cy="689.1" r="4" fill="#8ce8ff" opacity="0.40"/><circle cx="734.1" cy="590.0" r="2" fill="#d9ff5f" opacity="0.54"/><circle cx="623.0" cy="626.8" r="3" fill="#8ce8ff" opacity="0.63"/><circle cx="620.1" cy="497.0" r="4" fill="#8ce8ff" opacity="0.59"/><circle cx="1066.1" cy="586.3" r="2" fill="#8ce8ff" opacity="0.46"/><circle cx="1101.4" cy="501.7" r="3" fill="#8ce8ff" opacity="0.35"/><circle cx="987.0" cy="473.6" r="4" fill="#d9ff5f" opacity="0.37"/><circle cx="1107.9" cy="391.6" r="2" fill="#8ce8ff" opacity="0.50"/><circle cx="1292.5" cy="333.2" r="3" fill="#8ce8ff" opacity="0.62"/><circle cx="1527.3" cy="304.3" r="4" fill="#8ce8ff" opacity="0.62"/><circle cx="1334.4" cy="534.6" r="2" fill="#8ce8ff" opacity="0.50"/><circle cx="1480.8" cy="496.2" r="3" fill="#d9ff5f" opacity="0.37"/><circle cx="1663.2" cy="496.9" r="4" fill="#8ce8ff" opacity="0.35"/><circle cx="1843.4" cy="544.5" r="2" fill="#8ce8ff" opacity="0.46"/><circle cx="1850.9" cy="470.5" r="3" fill="#8ce8ff" opacity="0.60"/><circle cx="1519.5" cy="668.5" r="4" fill="#8ce8ff" opacity="0.63"/><circle cx="1638.7" cy="705.3" r="2" fill="#d9ff5f" opacity="0.54"/><circle cx="1739.9" cy="777.6" r="3" fill="#8ce8ff" opacity="0.40"/><circle cx="1858.1" cy="741.5" r="4" fill="#8ce8ff" opacity="0.34"/><circle cx="1908.4" cy="852.5" r="2" fill="#8ce8ff" opacity="0.42"/></g>
  </g>
  <path d="M 120 1280 H 720 M 1840 1280 H 2440" stroke="#8ce8ff" stroke-width="2" opacity="0.26"/>
  <path d="M 120 160 H 520 M 2040 160 H 2440" stroke="#d9ff5f" stroke-width="2" opacity="0.20"/>
</svg>
