<svg xmlns="http://www.w3.org/2000/svg" xmlns:xlink="http://www.w3.org/1999/xlink" width="2560" height="1440" viewBox="0 0 2560 1440">
  <defs>
    <radialGradient id="coreGlow" cx="50%" cy="50%" r="50%">
      <stop offset="0%" stop-color="#d9ff5f" stop-opacity="0.33"/>
      <stop offset="42%" stop-color="#51dfff" stop-opacity="0.15"/>
      <stop offset="100%" stop-color="#051018" stop-opacity="0"/>
    </radialGradient>
    <linearGradient id="scan" x1="0" y1="0" x2="1" y2="1">
      <stop offset="0%" stop-color="#8ce8ff" stop-opacity="0"/>
      <stop offset="48%" stop-color="#8ce8ff" stop-opacity="0.29"/>
      <stop offset="100%" stop-color="#d9ff5f" stop-opacity="0"/>
    </linearGradient>
  </defs>
  <rect width="2560" height="1440" fill="#071016"/>
  <image x="0" y="0" width="2560" height="1440" preserveAspectRatio="xMidYMid slice" opacity="0.99" xlink:href="/ai-core-style-frame.jpg"/>
  <rect width="2560" height="1440" fill="#050b11" opacity="0.18"/>
  <g transform="translate(1280 720) scale(0.9928) translate(-1280 -720)">
    <circle cx="1280" cy="720" r="580" fill="url(#coreGlow)"/>
    <g transform="rotate(14.56 1280 720)" fill="none">
      <ellipse cx="1280" cy="720" rx="310" ry="170" stroke="#8ce8ff" stroke-width="3" opacity="0.60"/>
      <ellipse cx="1280" cy="720" rx="430" ry="235" stroke="#8ce8ff" stroke-width="2" stroke-dasharray="18 16" opacity="0.43"/>
      <ellipse cx="1280" cy="720" rx="590" ry="325" stroke="#d9ff5f" stroke-width="2" stroke-dasharray="5 28" opacity="0.31"/>
      <ellipse cx="1280" cy="720" rx="720" ry="400" stroke="url(#scan)" stroke-width="4" opacity="0.39"/>
    </g>
    <g><line x1="1507.5" y1="777.0" x2="1935.2" y2="884.2" stroke="#d9ff5f" stroke-width="2" opacity="0.23"/><line x1="1367.5" y1="848.8" x2="1532.1" y2="1090.9" stroke="#8ce8ff" stroke-width="2" opacity="0.23"/><line x1="1176.3" y1="845.1" x2="981.4" y2="1080.3" stroke="#8ce8ff" stroke-width="2" opacity="0.23"/><line x1="1045.8" y1="768.2" x2="605.6" y2="858.7" stroke="#d9ff5f" stroke-width="2" opacity="0.23"/><line x1="1052.5" y1="663.0" x2="624.8" y2="555.8" stroke="#8ce8ff" stroke-width="2" opacity="0.23"/><line x1="1192.5" y1="591.2" x2="1027.9" y2="349.1" stroke="#8ce8ff" stroke-width="2" opacity="0.23"/><line x1="1383.7" y1="594.9" x2="1578.6" y2="359.7" stroke="#d9ff5f" stroke-width="2" opacity="0.23"/><line x1="1514.2" y1="671.8" x2="1954.4" y2="581.3" stroke="#8ce8ff" stroke-width="2" opacity="0.23"/><circle cx="1512.9" cy="760.4" r="2" fill="#d9ff5f" opacity="1.00"/><circle cx="1575.4" cy="824.1" r="3" fill="#8ce8ff" opacity="1.00"/><circle cx="1591.2" cy="908.6" r="4" fill="#8ce8ff" opacity="0.92"/><circle cx="1538.2" cy="997.6" r="2" fill="#8ce8ff" opacity="0.79"/><circle cx="1609.6" cy="1032.1" r="3" fill="#8ce8ff" opacity="0.76"/><circle cx="1471.1" cy="1112.0" r="4" fill="#d9ff5f" opacity="0.87"/><circle cx="1279.4" cy="866.4" r="2" fill="#8ce8ff" opacity="1.00"/><circle cx="1182.8" cy="915.8" r="3" fill="#8ce8ff" opacity="1.00"/><circle cx="1178.3" cy="978.6" r="4" fill="#8ce8ff" opacity="0.96"/><circle cx="1009.7" cy="1007.5" r="2" fill="#8ce8ff" opacity="0.82"/><circle cx="819.6" cy="996.5" r="3" fill="#d9ff5f" opacity="0.76"/><circle cx="634.7" cy="945.1" r="4" fill="#8ce8ff" opacity="0.83"/><circle cx="1044.4" cy="812.2" r="2" fill="#8ce8ff" opacity="0.97"/><circle cx="916.2" cy="794.0" r="3" fill="#8ce8ff" opacity="1.00"/><circle cx="783.4" cy="744.7" r="4" fill="#8ce8ff" opacity="1.00"/><circle cx="680.4" cy="662.0" r="2" fill="#d9ff5f" opacity="0.86"/><circle cx="578.8" cy="673.2" r="3" fill="#8ce8ff" opacity="0.76"/><circle cx="547.2" cy="556.7" r="4" fill="#8ce8ff" opacity="0.80"/><circle cx="1030.2" cy="615.8" r="2" fill="#8ce8ff" opacity="0.93"/><circle cx="1030.7" cy="542.5" r="3" fill="#8ce8ff" opacity="1.00"/><circle cx="943.2" cy="504.9" r="4" fill="#d9ff5f" opacity="1.00"/><circle cx="1008.7" cy="408.5" r="2" fill="#8ce8ff" opacity="0.90"/><circle cx="1147.5" cy="325.3" r="3" fill="#8ce8ff" opacity="0.77"/><circle cx="1346.7" cy="272.1" r="4" fill="#8ce8ff" opacity="0.77"/><circle cx="1289.6" cy="533.7" r="2" fill="#8ce8ff" opacity="0.89"/><circle cx="1403.7" cy="494.1" r="3" fill="#d9ff5f" opacity="1.00"/><circle cx="1562.1" cy="470.7" r="4" fill="#8ce8ff" opacity="1.00"/><circle cx="1752.9" cy="477.7" r="2" fill="#8ce8ff" opacity="0.94"/><circle cx="1802.1" cy="422.4" r="3" fill="#8ce8ff" opacity="0.80"/><circle cx="1522.8" cy="640.1" r="4" fill="#8ce8ff" opacity="0.76"/><circle cx="1631.1" cy="665.5" r="2" fill="#d9ff5f" opacity="0.85"/><circle cx="1731.4" cy="717.3" r="3" fill="#8ce8ff" opacity="0.99"/><circle cx="1831.3" cy="700.5" r="4" fill="#8ce8ff" opacity="1.00"/><circle cx="1930.7" cy="792.6" r="2" fill="#8ce8ff" opacity="0.98"/></g>
  </g>
  <path d="M 120 1280 H 720 M 1840 1280 H 2440" stroke="#8ce8ff" stroke-width="2" opacity="0.39"/>
  <path d="M 120 160 H 520 M 2040 160 H 2440" stroke="#d9ff5f" stroke-width="2" opacity="0.31"/>
</svg>
