<svg xmlns="http://www.w3.org/2000/svg" xmlns:xlink="http://www.w3.org/1999/xlink" width="2560" height="1440" viewBox="0 0 2560 1440">
  <defs>
    <radialGradient id="coreGlow" cx="50%" cy="50%" r="50%">
      <stop offset="0%" stop-color="#d9ff5f" stop-opacity="0.34"/>
      <stop offset="42%" stop-color="#51dfff" stop-opacity="0.15"/>
      <stop offset="100%" stop-color="#051018" stop-opacity="0"/>
    </radialGradient>
    <linearGradient id="scan" x1="0" y1="0" x2="1" y2="1">
      <stop offset="0%" stop-color="#8ce8ff" stop-opacity="0"/>
      <stop offset="48%" stop-color="#8ce8ff" stop-opacity="0.30"/>
      <stop offset="100%" stop-color="#d9ff5f" stop-opacity="0"/>
    </linearGradient>
  </defs>
  <rect width="2560" height="1440" fill="#071016"/>
  <image x="0" y="0" width="2560" height="1440" preserveAspectRatio="xMidYMid slice" opacity="1.00" xlink:href="/ai-core-style-frame.jpg"/>
  <rect width="2560" height="1440" fill="#050b11" opacity="0.18"/>
  <g transform="translate(1280 720) scale(0.9994) translate(-1280 -720)">
    <circle cx="1280" cy="720" r="580" fill="url(#coreGlow)"/>
    <g transform="rotate(7.40 1280 720)" fill="none">
      <ellipse cx="1280" cy="720" rx="310" ry="170" stroke="#8ce8ff" stroke-width="3" opacity="0.62"/>
      <ellipse cx="1280" cy="720" rx="430" ry="235" stroke="#8ce8ff" stroke-width="2" stroke-dasharray="18 16" opacity="0.45"/>
      <ellipse cx="1280" cy="720" rx="590" ry="325" stroke="#d9ff5f" stroke-width="2" stroke-dasharray="5 28" opacity="0.32"/>
      <ellipse cx="1280" cy="720" rx="720" ry="400" stroke="url(#scan)" stroke-width="4" opacity="0.41"/>
    </g>
    <g><line x1="1516.7" y1="764.3" x2="1961.6" y2="847.6" stroke="#d9ff5f" stroke-width="2" opacity="0.24"/><line x1="1390.4" y1="843.4" x2="1597.9" y2="1075.3" stroke="#8ce8ff" stroke-width="2" opacity="0.24"/><line x1="1199.5" y1="850.2" x2="1048.0" y2="1094.9" stroke="#8ce8ff" stroke-width="2" opacity="0.24"/><line x1="1055.7" y1="780.7" x2="634.0" y2="894.9" stroke="#d9ff5f" stroke-width="2" opacity="0.24"/><line x1="1043.3" y1="675.7" x2="598.4" y2="592.4" stroke="#8ce8ff" stroke-width="2" opacity="0.24"/><line x1="1169.6" y1="596.6" x2="962.1" y2="364.7" stroke="#8ce8ff" stroke-width="2" opacity="0.24"/><line x1="1360.5" y1="589.8" x2="1512.0" y2="345.1" stroke="#d9ff5f" stroke-width="2" opacity="0.24"/><line x1="1504.3" y1="659.3" x2="1926.0" y2="545.1" stroke="#8ce8ff" stroke-width="2" opacity="0.24"/><circle cx="1524.0" cy="752.0" r="2" fill="#d9ff5f" opacity="0.85"/><circle cx="1582.5" cy="806.6" r="3" fill="#8ce8ff" opacity="1.00"/><circle cx="1613.5" cy="882.8" r="4" fill="#8ce8ff" opacity="1.00"/><circle cx="1594.9" cy="973.5" r="2" fill="#8ce8ff" opacity="1.00"/><circle cx="1653.4" cy="1021.9" r="3" fill="#8ce8ff" opacity="0.92"/><circle cx="1540.0" cy="1109.9" r="4" fill="#d9ff5f" opacity="0.81"/><circle cx="1309.3" cy="871.4" r="2" fill="#8ce8ff" opacity="0.82"/><circle cx="1229.3" cy="918.0" r="3" fill="#8ce8ff" opacity="0.95"/><circle cx="1214.3" cy="972.8" r="4" fill="#8ce8ff" opacity="1.00"/><circle cx="1062.3" cy="1013.2" r="2" fill="#8ce8ff" opacity="1.00"/><circle cx="874.7" cy="1023.6" r="3" fill="#d9ff5f" opacity="0.96"/><circle cx="679.2" cy="993.7" r="4" fill="#8ce8ff" opacity="0.83"/><circle cx="1046.0" cy="826.2" r="2" fill="#8ce8ff" opacity="0.81"/><circle cx="930.3" cy="811.5" r="3" fill="#8ce8ff" opacity="0.91"/><circle cx="805.7" cy="772.4" r="4" fill="#8ce8ff" opacity="1.00"/><circle cx="687.3" cy="704.5" r="2" fill="#d9ff5f" opacity="1.00"/><circle cx="576.3" cy="700.8" r="3" fill="#8ce8ff" opacity="1.00"/><circle cx="510.6" cy="591.3" r="4" fill="#8ce8ff" opacity="0.86"/><circle cx="997.3" cy="626.6" r="2" fill="#8ce8ff" opacity="0.80"/><circle cx="989.0" cy="559.6" r="3" fill="#8ce8ff" opacity="0.87"/><circle cx="924.6" cy="523.2" r="4" fill="#d9ff5f" opacity="1.00"/><circle cx="967.8" cy="431.1" r="2" fill="#8ce8ff" opacity="1.00"/><circle cx="1072.7" cy="338.9" r="3" fill="#8ce8ff" opacity="1.00"/><circle cx="1242.9" cy="265.6" r="4" fill="#8ce8ff" opacity="0.90"/><circle cx="1264.7" cy="524.4" r="2" fill="#8ce8ff" opacity="0.80"/><circle cx="1368.2" cy="484.2" r="3" fill="#d9ff5f" opacity="0.84"/><circle cx="1508.1" cy="459.3" r="4" fill="#8ce8ff" opacity="0.98"/><circle cx="1682.5" cy="454.1" r="2" fill="#8ce8ff" opacity="1.00"/><circle cx="1755.4" cy="407.2" r="3" fill="#8ce8ff" opacity="1.00"/><circle cx="1513.4" cy="626.7" r="4" fill="#8ce8ff" opacity="0.94"/><circle cx="1633.9" cy="641.6" r="2" fill="#d9ff5f" opacity="0.82"/><circle cx="1739.6" cy="685.1" r="3" fill="#8ce8ff" opacity="0.81"/><circle cx="1824.1" cy="679.3" r="4" fill="#8ce8ff" opacity="0.94"/><circle cx="1924.0" cy="759.3" r="2" fill="#8ce8ff" opacity="1.00"/></g>
  </g>
  <path d="M 120 1280 H 720 M 1840 1280 H 2440" stroke="#8ce8ff" stroke-width="2" opacity="0.41"/>
  <path d="M 120 160 H 520 M 2040 160 H 2440" stroke="#d9ff5f" stroke-width="2" opacity="0.32"/>
</svg>
