<svg xmlns="http://www.w3.org/2000/svg" xmlns:xlink="http://www.w3.org/1999/xlink" width="2560" height="1440" viewBox="0 0 2560 1440">
  <defs>
    <radialGradient id="coreGlow" cx="50%" cy="50%" r="50%">
      <stop offset="0%" stop-color="#d9ff5f" stop-opacity="0.34"/>
      <stop offset="42%" stop-color="#51dfff" stop-opacity="0.15"/>
      <stop offset="100%" stop-color="#051018" stop-opacity="0"/>
    </radialGradient>
    <linearGradient id="scan" x1="0" y1="0" x2="1" y2="1">
      <stop offset="0%" stop-color="#8ce8ff" stop-opacity="0"/>
      <stop offset="48%" stop-color="#8ce8ff" stop-opacity="0.30"/>
      <stop offset="100%" stop-color="#d9ff5f" stop-opacity="0"/>
    </linearGradient>
  </defs>
  <rect width="2560" height="1440" fill="#071016"/>
  <image x="0" y="0" width="2560" height="1440" preserveAspectRatio="xMidYMid slice" opacity="1.00" xlink:href="/ai-core-style-frame.jpg"/>
  <rect width="2560" height="1440" fill="#050b11" opacity="0.18"/>
  <g transform="translate(1280 720) scale(0.9999) translate(-1280 -720)">
    <circle cx="1280" cy="720" r="580" fill="url(#coreGlow)"/>
    <g transform="rotate(9.75 1280 720)" fill="none">
      <ellipse cx="1280" cy="720" rx="310" ry="170" stroke="#8ce8ff" stroke-width="3" opacity="0.62"/>
      <ellipse cx="1280" cy="720" rx="430" ry="235" stroke="#8ce8ff" stroke-width="2" stroke-dasharray="18 16" opacity="0.45"/>
      <ellipse cx="1280" cy="720" rx="590" ry="325" stroke="#d9ff5f" stroke-width="2" stroke-dasharray="5 28" opacity="0.32"/>
      <ellipse cx="1280" cy="720" rx="720" ry="400" stroke="url(#scan)" stroke-width="4" opacity="0.41"/>
    </g>
    <g><line x1="1514.0" y1="768.5" x2="1953.8" y2="859.6" stroke="#d9ff5f" stroke-width="2" opacity="0.24"/><line x1="1383.1" y1="845.3" x2="1577.0" y2="1080.7" stroke="#8ce8ff" stroke-width="2" opacity="0.24"/><line x1="1191.9" y1="848.7" x2="1026.2" y2="1090.6" stroke="#8ce8ff" stroke-width="2" opacity="0.24"/><line x1="1052.3" y1="776.7" x2="624.1" y2="883.3" stroke="#d9ff5f" stroke-width="2" opacity="0.24"/><line x1="1046.0" y1="671.5" x2="606.2" y2="580.4" stroke="#8ce8ff" stroke-width="2" opacity="0.24"/><line x1="1176.9" y1="594.7" x2="983.0" y2="359.3" stroke="#8ce8ff" stroke-width="2" opacity="0.24"/><line x1="1368.1" y1="591.3" x2="1533.8" y2="349.4" stroke="#d9ff5f" stroke-width="2" opacity="0.24"/><line x1="1507.7" y1="663.3" x2="1935.9" y2="556.7" stroke="#8ce8ff" stroke-width="2" opacity="0.24"/><circle cx="1518.6" cy="754.5" r="2" fill="#d9ff5f" opacity="0.93"/><circle cx="1578.9" cy="811.7" r="3" fill="#8ce8ff" opacity="1.00"/><circle cx="1606.9" cy="891.2" r="4" fill="#8ce8ff" opacity="1.00"/><circle cx="1578.2" cy="982.6" r="2" fill="#8ce8ff" opacity="0.99"/><circle cx="1640.4" cy="1026.4" r="3" fill="#8ce8ff" opacity="0.85"/><circle cx="1517.7" cy="1111.1" r="4" fill="#d9ff5f" opacity="0.80"/><circle cx="1299.2" cy="869.1" r="2" fill="#8ce8ff" opacity="0.89"/><circle cx="1214.7" cy="916.5" r="3" fill="#8ce8ff" opacity="1.00"/><circle cx="1203.0" cy="974.5" r="4" fill="#8ce8ff" opacity="1.00"/><circle cx="1044.7" cy="1012.4" r="2" fill="#8ce8ff" opacity="1.00"/><circle cx="854.9" cy="1016.1" r="3" fill="#d9ff5f" opacity="0.88"/><circle cx="662.7" cy="978.5" r="4" fill="#8ce8ff" opacity="0.80"/><circle cx="1046.1" cy="821.2" r="2" fill="#8ce8ff" opacity="0.86"/><circle cx="927.5" cy="805.4" r="3" fill="#8ce8ff" opacity="1.00"/><circle cx="799.2" cy="763.6" r="4" fill="#8ce8ff" opacity="1.00"/><circle cx="683.1" cy="690.9" r="2" fill="#d9ff5f" opacity="1.00"/><circle cx="574.6" cy="691.8" r="3" fill="#8ce8ff" opacity="0.92"/><circle cx="520.5" cy="579.6" r="4" fill="#8ce8ff" opacity="0.81"/><circle cx="1008.3" cy="623.0" r="2" fill="#8ce8ff" opacity="0.83"/><circle cx="1003.6" cy="554.5" r="3" fill="#8ce8ff" opacity="0.96"/><circle cx="931.5" cy="517.9" r="4" fill="#d9ff5f" opacity="1.00"/><circle cx="980.3" cy="423.5" r="2" fill="#8ce8ff" opacity="1.00"/><circle cx="1096.1" cy="333.0" r="3" fill="#8ce8ff" opacity="0.96"/><circle cx="1276.7" cy="265.9" r="4" fill="#8ce8ff" opacity="0.83"/><circle cx="1273.0" cy="527.3" r="2" fill="#8ce8ff" opacity="0.81"/><circle cx="1379.5" cy="488.2" r="3" fill="#d9ff5f" opacity="0.91"/><circle cx="1524.8" cy="463.6" r="4" fill="#8ce8ff" opacity="1.00"/><circle cx="1705.5" cy="461.3" r="2" fill="#8ce8ff" opacity="1.00"/><circle cx="1771.7" cy="411.2" r="3" fill="#8ce8ff" opacity="1.00"/><circle cx="1518.4" cy="630.3" r="4" fill="#8ce8ff" opacity="0.86"/><circle cx="1634.2" cy="649.3" r="2" fill="#d9ff5f" opacity="0.80"/><circle cx="1736.4" cy="695.7" r="3" fill="#8ce8ff" opacity="0.87"/><circle cx="1824.6" cy="686.2" r="4" fill="#8ce8ff" opacity="1.00"/><circle cx="1925.9" cy="769.9" r="2" fill="#8ce8ff" opacity="1.00"/></g>
  </g>
  <path d="M 120 1280 H 720 M 1840 1280 H 2440" stroke="#8ce8ff" stroke-width="2" opacity="0.41"/>
  <path d="M 120 160 H 520 M 2040 160 H 2440" stroke="#d9ff5f" stroke-width="2" opacity="0.32"/>
</svg>
