<svg xmlns="http://www.w3.org/2000/svg" xmlns:xlink="http://www.w3.org/1999/xlink" width="2560" height="1440" viewBox="0 0 2560 1440">
  <defs>
    <radialGradient id="coreGlow" cx="50%" cy="50%" r="50%">
      <stop offset="0%" stop-color="#d9ff5f" stop-opacity="0.27"/>
      <stop offset="42%" stop-color="#51dfff" stop-opacity="0.12"/>
      <stop offset="100%" stop-color="#051018" stop-opacity="0"/>
    </radialGradient>
    <linearGradient id="scan" x1="0" y1="0" x2="1" y2="1">
      <stop offset="0%" stop-color="#8ce8ff" stop-opacity="0"/>
      <stop offset="48%" stop-color="#8ce8ff" stop-opacity="0.24"/>
      <stop offset="100%" stop-color="#d9ff5f" stop-opacity="0"/>
    </linearGradient>
  </defs>
  <rect width="2560" height="1440" fill="#071016"/>
  <image x="0" y="0" width="2560" height="1440" preserveAspectRatio="xMidYMid slice" opacity="0.95" xlink:href="/ai-core-style-frame.jpg"/>
  <rect width="2560" height="1440" fill="#050b11" opacity="0.18"/>
  <g transform="translate(1280 720) scale(0.9617) translate(-1280 -720)">
    <circle cx="1280" cy="720" r="580" fill="url(#coreGlow)"/>
    <g transform="rotate(-3.12 1280 720)" fill="none">
      <ellipse cx="1280" cy="720" rx="310" ry="170" stroke="#8ce8ff" stroke-width="3" opacity="0.49"/>
      <ellipse cx="1280" cy="720" rx="430" ry="235" stroke="#8ce8ff" stroke-width="2" stroke-dasharray="18 16" opacity="0.35"/>
      <ellipse cx="1280" cy="720" rx="590" ry="325" stroke="#d9ff5f" stroke-width="2" stroke-dasharray="5 28" opacity="0.26"/>
      <ellipse cx="1280" cy="720" rx="720" ry="400" stroke="url(#scan)" stroke-width="4" opacity="0.33"/>
    </g>
    <g><line x1="1526.5" y1="742.8" x2="1990.0" y2="785.8" stroke="#d9ff5f" stroke-width="2" opacity="0.19"/><line x1="1424.9" y1="832.0" x2="1697.4" y2="1042.7" stroke="#8ce8ff" stroke-width="2" opacity="0.19"/><line x1="1238.5" y1="855.6" x2="1160.4" y2="1110.5" stroke="#8ce8ff" stroke-width="2" opacity="0.19"/><line x1="1076.3" y1="799.7" x2="693.4" y2="949.6" stroke="#d9ff5f" stroke-width="2" opacity="0.19"/><line x1="1033.5" y1="697.2" x2="570.0" y2="654.2" stroke="#8ce8ff" stroke-width="2" opacity="0.19"/><line x1="1135.1" y1="608.0" x2="862.6" y2="397.3" stroke="#8ce8ff" stroke-width="2" opacity="0.19"/><line x1="1321.5" y1="584.4" x2="1399.6" y2="329.5" stroke="#d9ff5f" stroke-width="2" opacity="0.19"/><line x1="1483.7" y1="640.3" x2="1866.6" y2="490.4" stroke="#8ce8ff" stroke-width="2" opacity="0.19"/><circle cx="1553.1" cy="738.0" r="2" fill="#d9ff5f" opacity="0.75"/><circle cx="1620.6" cy="785.2" r="3" fill="#8ce8ff" opacity="0.61"/><circle cx="1657.4" cy="847.5" r="4" fill="#8ce8ff" opacity="0.56"/><circle cx="1665.5" cy="924.2" r="2" fill="#8ce8ff" opacity="0.65"/><circle cx="1699.7" cy="987.3" r="3" fill="#8ce8ff" opacity="0.79"/><circle cx="1639.4" cy="1084.8" r="4" fill="#d9ff5f" opacity="0.86"/><circle cx="1362.6" cy="877.5" r="2" fill="#8ce8ff" opacity="0.79"/><circle cx="1305.1" cy="932.3" r="3" fill="#8ce8ff" opacity="0.65"/><circle cx="1267.4" cy="977.6" r="4" fill="#8ce8ff" opacity="0.56"/><circle cx="1146.2" cy="1017.4" r="2" fill="#8ce8ff" opacity="0.61"/><circle cx="987.8" cy="1045.6" r="3" fill="#d9ff5f" opacity="0.75"/><circle cx="797.8" cy="1051.8" r="4" fill="#8ce8ff" opacity="0.86"/><circle cx="1058.4" cy="846.7" r="2" fill="#8ce8ff" opacity="0.82"/><circle cx="937.0" cy="846.0" r="3" fill="#8ce8ff" opacity="0.69"/><circle cx="819.2" cy="819.2" r="4" fill="#8ce8ff" opacity="0.57"/><circle cx="707.1" cy="770.0" r="2" fill="#d9ff5f" opacity="0.59"/><circle cx="602.4" cy="744.5" r="3" fill="#8ce8ff" opacity="0.71"/><circle cx="499.0" cy="655.0" r="4" fill="#8ce8ff" opacity="0.84"/><circle cx="962.6" cy="653.1" r="2" fill="#8ce8ff" opacity="0.85"/><circle cx="914.8" cy="587.9" r="3" fill="#8ce8ff" opacity="0.73"/><circle cx="872.6" cy="541.1" r="4" fill="#d9ff5f" opacity="0.60"/><circle cx="899.4" cy="461.8" r="2" fill="#8ce8ff" opacity="0.57"/><circle cx="966.2" cy="376.5" r="3" fill="#8ce8ff" opacity="0.67"/><circle cx="1080.4" cy="289.7" r="4" fill="#8ce8ff" opacity="0.81"/><circle cx="1223.5" cy="524.9" r="2" fill="#8ce8ff" opacity="0.86"/><circle cx="1306.6" cy="467.1" r="3" fill="#d9ff5f" opacity="0.77"/><circle cx="1428.0" cy="430.0" r="4" fill="#8ce8ff" opacity="0.63"/><circle cx="1576.0" cy="414.4" r="2" fill="#8ce8ff" opacity="0.56"/><circle cx="1675.3" cy="389.0" r="3" fill="#8ce8ff" opacity="0.63"/><circle cx="1469.7" cy="618.1" r="4" fill="#8ce8ff" opacity="0.78"/><circle cx="1600.3" cy="610.1" r="2" fill="#d9ff5f" opacity="0.86"/><circle cx="1735.0" cy="630.9" r="3" fill="#8ce8ff" opacity="0.81"/><circle cx="1835.8" cy="641.8" r="4" fill="#8ce8ff" opacity="0.67"/><circle cx="1935.1" cy="707.5" r="2" fill="#8ce8ff" opacity="0.57"/></g>
  </g>
  <path d="M 120 1280 H 720 M 1840 1280 H 2440" stroke="#8ce8ff" stroke-width="2" opacity="0.33"/>
  <path d="M 120 160 H 520 M 2040 160 H 2440" stroke="#d9ff5f" stroke-width="2" opacity="0.26"/>
</svg>
