<svg xmlns="http://www.w3.org/2000/svg" xmlns:xlink="http://www.w3.org/1999/xlink" width="2560" height="1440" viewBox="0 0 2560 1440">
  <defs>
    <radialGradient id="coreGlow" cx="50%" cy="50%" r="50%">
      <stop offset="0%" stop-color="#d9ff5f" stop-opacity="0.21"/>
      <stop offset="42%" stop-color="#51dfff" stop-opacity="0.09"/>
      <stop offset="100%" stop-color="#051018" stop-opacity="0"/>
    </radialGradient>
    <linearGradient id="scan" x1="0" y1="0" x2="1" y2="1">
      <stop offset="0%" stop-color="#8ce8ff" stop-opacity="0"/>
      <stop offset="48%" stop-color="#8ce8ff" stop-opacity="0.19"/>
      <stop offset="100%" stop-color="#d9ff5f" stop-opacity="0"/>
    </linearGradient>
  </defs>
  <rect width="2560" height="1440" fill="#071016"/>
  <image x="0" y="0" width="2560" height="1440" preserveAspectRatio="xMidYMid slice" opacity="0.91" xlink:href="/ai-core-style-frame.jpg"/>
  <rect width="2560" height="1440" fill="#050b11" opacity="0.18"/>
  <g transform="translate(1280 720) scale(0.9290) translate(-1280 -720)">
    <circle cx="1280" cy="720" r="580" fill="url(#coreGlow)"/>
    <g transform="rotate(-6.33 1280 720)" fill="none">
      <ellipse cx="1280" cy="720" rx="310" ry="170" stroke="#8ce8ff" stroke-width="3" opacity="0.38"/>
      <ellipse cx="1280" cy="720" rx="430" ry="235" stroke="#8ce8ff" stroke-width="2" stroke-dasharray="18 16" opacity="0.28"/>
      <ellipse cx="1280" cy="720" rx="590" ry="325" stroke="#d9ff5f" stroke-width="2" stroke-dasharray="5 28" opacity="0.20"/>
      <ellipse cx="1280" cy="720" rx="720" ry="400" stroke="url(#scan)" stroke-width="4" opacity="0.25"/>
    </g>
    <g><line x1="1528.9" y1="732.9" x2="1996.8" y2="757.1" stroke="#d9ff5f" stroke-width="2" opacity="0.15"/><line x1="1439.5" y1="825.9" x2="1739.2" y2="1025.0" stroke="#8ce8ff" stroke-width="2" opacity="0.15"/><line x1="1256.6" y1="856.9" x2="1212.6" y2="1114.3" stroke="#8ce8ff" stroke-width="2" opacity="0.15"/><line x1="1087.5" y1="807.7" x2="725.5" y2="972.6" stroke="#d9ff5f" stroke-width="2" opacity="0.15"/><line x1="1031.1" y1="707.1" x2="563.2" y2="682.9" stroke="#8ce8ff" stroke-width="2" opacity="0.15"/><line x1="1120.5" y1="614.1" x2="820.8" y2="415.0" stroke="#8ce8ff" stroke-width="2" opacity="0.15"/><line x1="1303.4" y1="583.1" x2="1347.4" y2="325.7" stroke="#d9ff5f" stroke-width="2" opacity="0.15"/><line x1="1472.5" y1="632.3" x2="1834.5" y2="467.4" stroke="#8ce8ff" stroke-width="2" opacity="0.15"/><circle cx="1553.4" cy="730.1" r="2" fill="#d9ff5f" opacity="0.66"/><circle cx="1637.7" cy="774.3" r="3" fill="#8ce8ff" opacity="0.58"/><circle cx="1685.5" cy="833.7" r="4" fill="#8ce8ff" opacity="0.44"/><circle cx="1700.6" cy="904.6" r="2" fill="#8ce8ff" opacity="0.36"/><circle cx="1718.2" cy="971.2" r="3" fill="#8ce8ff" opacity="0.41"/><circle cx="1675.5" cy="1065.1" r="4" fill="#d9ff5f" opacity="0.55"/><circle cx="1383.4" cy="871.0" r="2" fill="#8ce8ff" opacity="0.65"/><circle cx="1342.1" cy="934.3" r="3" fill="#8ce8ff" opacity="0.62"/><circle cx="1292.3" cy="984.8" r="4" fill="#8ce8ff" opacity="0.48"/><circle cx="1180.9" cy="1025.0" r="2" fill="#8ce8ff" opacity="0.37"/><circle cx="1038.0" cy="1054.2" r="3" fill="#d9ff5f" opacity="0.38"/><circle cx="863.1" cy="1069.1" r="4" fill="#8ce8ff" opacity="0.51"/><circle cx="1075.9" cy="849.6" r="2" fill="#8ce8ff" opacity="0.64"/><circle cx="949.3" cy="859.7" r="3" fill="#8ce8ff" opacity="0.64"/><circle cx="823.6" cy="842.1" r="4" fill="#8ce8ff" opacity="0.52"/><circle cx="709.1" cy="800.3" r="2" fill="#d9ff5f" opacity="0.39"/><circle cx="608.3" cy="763.7" r="3" fill="#8ce8ff" opacity="0.36"/><circle cx="505.0" cy="684.0" r="4" fill="#8ce8ff" opacity="0.47"/><circle cx="963.9" cy="668.8" r="2" fill="#8ce8ff" opacity="0.61"/><circle cx="893.3" cy="606.9" r="3" fill="#8ce8ff" opacity="0.65"/><circle cx="846.8" cy="549.4" r="4" fill="#d9ff5f" opacity="0.56"/><circle cx="861.5" cy="471.6" r="2" fill="#8ce8ff" opacity="0.42"/><circle cx="917.1" cy="390.8" r="3" fill="#8ce8ff" opacity="0.36"/><circle cx="1012.1" cy="307.1" r="4" fill="#8ce8ff" opacity="0.43"/><circle cx="1207.6" cy="533.3" r="2" fill="#8ce8ff" opacity="0.57"/><circle cx="1276.3" cy="468.2" r="3" fill="#d9ff5f" opacity="0.66"/><circle cx="1387.5" cy="419.4" r="4" fill="#8ce8ff" opacity="0.60"/><circle cx="1527.9" cy="394.2" r="2" fill="#8ce8ff" opacity="0.46"/><circle cx="1645.6" cy="376.0" r="3" fill="#8ce8ff" opacity="0.36"/><circle cx="1451.9" cy="614.6" r="4" fill="#8ce8ff" opacity="0.40"/><circle cx="1573.0" cy="600.7" r="2" fill="#d9ff5f" opacity="0.53"/><circle cx="1712.3" cy="609.4" r="3" fill="#8ce8ff" opacity="0.65"/><circle cx="1833.6" cy="624.9" r="4" fill="#8ce8ff" opacity="0.63"/><circle cx="1945.1" cy="683.1" r="2" fill="#8ce8ff" opacity="0.50"/></g>
  </g>
  <path d="M 120 1280 H 720 M 1840 1280 H 2440" stroke="#8ce8ff" stroke-width="2" opacity="0.26"/>
  <path d="M 120 160 H 520 M 2040 160 H 2440" stroke="#d9ff5f" stroke-width="2" opacity="0.20"/>
</svg>
