<svg xmlns="http://www.w3.org/2000/svg" xmlns:xlink="http://www.w3.org/1999/xlink" width="2560" height="1440" viewBox="0 0 2560 1440">
  <defs>
    <radialGradient id="coreGlow" cx="50%" cy="50%" r="50%">
      <stop offset="0%" stop-color="#d9ff5f" stop-opacity="0.25"/>
      <stop offset="42%" stop-color="#51dfff" stop-opacity="0.11"/>
      <stop offset="100%" stop-color="#051018" stop-opacity="0"/>
    </radialGradient>
    <linearGradient id="scan" x1="0" y1="0" x2="1" y2="1">
      <stop offset="0%" stop-color="#8ce8ff" stop-opacity="0"/>
      <stop offset="48%" stop-color="#8ce8ff" stop-opacity="0.23"/>
      <stop offset="100%" stop-color="#d9ff5f" stop-opacity="0"/>
    </linearGradient>
  </defs>
  <rect width="2560" height="1440" fill="#071016"/>
  <image x="0" y="0" width="2560" height="1440" preserveAspectRatio="xMidYMid slice" opacity="0.94" xlink:href="/ai-core-style-frame.jpg"/>
  <rect width="2560" height="1440" fill="#050b11" opacity="0.18"/>
  <g transform="translate(1280 720) scale(0.9521) translate(-1280 -720)">
    <circle cx="1280" cy="720" r="580" fill="url(#coreGlow)"/>
    <g transform="rotate(-4.30 1280 720)" fill="none">
      <ellipse cx="1280" cy="720" rx="310" ry="170" stroke="#8ce8ff" stroke-width="3" opacity="0.46"/>
      <ellipse cx="1280" cy="720" rx="430" ry="235" stroke="#8ce8ff" stroke-width="2" stroke-dasharray="18 16" opacity="0.33"/>
      <ellipse cx="1280" cy="720" rx="590" ry="325" stroke="#d9ff5f" stroke-width="2" stroke-dasharray="5 28" opacity="0.24"/>
      <ellipse cx="1280" cy="720" rx="720" ry="400" stroke="url(#scan)" stroke-width="4" opacity="0.30"/>
    </g>
    <g><line x1="1527.4" y1="739.7" x2="1992.6" y2="776.6" stroke="#d9ff5f" stroke-width="2" opacity="0.18"/><line x1="1429.7" y1="830.1" x2="1711.1" y2="1037.2" stroke="#8ce8ff" stroke-width="2" opacity="0.18"/><line x1="1244.2" y1="856.1" x2="1177.0" y2="1111.9" stroke="#8ce8ff" stroke-width="2" opacity="0.18"/><line x1="1079.8" y1="802.3" x2="703.3" y2="957.1" stroke="#d9ff5f" stroke-width="2" opacity="0.18"/><line x1="1032.6" y1="700.3" x2="567.4" y2="663.4" stroke="#8ce8ff" stroke-width="2" opacity="0.18"/><line x1="1130.3" y1="609.9" x2="848.9" y2="402.8" stroke="#8ce8ff" stroke-width="2" opacity="0.18"/><line x1="1315.8" y1="583.9" x2="1383.0" y2="328.1" stroke="#d9ff5f" stroke-width="2" opacity="0.18"/><line x1="1480.2" y1="637.7" x2="1856.7" y2="482.9" stroke="#8ce8ff" stroke-width="2" opacity="0.18"/><circle cx="1554.5" cy="735.5" r="2" fill="#d9ff5f" opacity="0.74"/><circle cx="1626.9" cy="781.9" r="3" fill="#8ce8ff" opacity="0.60"/><circle cx="1666.1" cy="843.1" r="4" fill="#8ce8ff" opacity="0.51"/><circle cx="1676.2" cy="917.7" r="2" fill="#8ce8ff" opacity="0.54"/><circle cx="1705.3" cy="981.9" r="3" fill="#8ce8ff" opacity="0.68"/><circle cx="1651.4" cy="1078.7" r="4" fill="#d9ff5f" opacity="0.79"/><circle cx="1369.7" cy="876.1" r="2" fill="#8ce8ff" opacity="0.77"/><circle cx="1316.9" cy="933.7" r="3" fill="#8ce8ff" opacity="0.65"/><circle cx="1275.2" cy="979.9" r="4" fill="#8ce8ff" opacity="0.52"/><circle cx="1157.4" cy="1019.4" r="2" fill="#8ce8ff" opacity="0.52"/><circle cx="1004.2" cy="1048.1" r="3" fill="#d9ff5f" opacity="0.63"/><circle cx="818.5" cy="1057.8" r="4" fill="#8ce8ff" opacity="0.77"/><circle cx="1063.4" cy="848.1" r="2" fill="#8ce8ff" opacity="0.79"/><circle cx="939.8" cy="850.8" r="3" fill="#8ce8ff" opacity="0.69"/><circle cx="820.0" cy="826.5" r="4" fill="#8ce8ff" opacity="0.55"/><circle cx="708.0" cy="779.6" r="2" fill="#d9ff5f" opacity="0.50"/><circle cx="605.3" cy="750.6" r="3" fill="#8ce8ff" opacity="0.59"/><circle cx="500.9" cy="664.3" r="4" fill="#8ce8ff" opacity="0.74"/><circle cx="962.0" cy="658.0" r="2" fill="#8ce8ff" opacity="0.80"/><circle cx="906.5" cy="593.5" r="3" fill="#8ce8ff" opacity="0.73"/><circle cx="863.9" cy="543.5" r="4" fill="#d9ff5f" opacity="0.58"/><circle cx="887.6" cy="465.0" r="2" fill="#8ce8ff" opacity="0.50"/><circle cx="950.9" cy="381.4" r="3" fill="#8ce8ff" opacity="0.56"/><circle cx="1058.3" cy="295.3" r="4" fill="#8ce8ff" opacity="0.70"/><circle cx="1218.2" cy="527.3" r="2" fill="#8ce8ff" opacity="0.80"/><circle cx="1296.9" cy="466.6" r="3" fill="#d9ff5f" opacity="0.76"/><circle cx="1415.5" cy="426.0" r="4" fill="#8ce8ff" opacity="0.62"/><circle cx="1561.0" cy="407.9" r="2" fill="#8ce8ff" opacity="0.51"/><circle cx="1665.4" cy="385.3" r="3" fill="#8ce8ff" opacity="0.53"/><circle cx="1463.4" cy="617.2" r="4" fill="#8ce8ff" opacity="0.66"/><circle cx="1591.8" cy="606.8" r="2" fill="#d9ff5f" opacity="0.78"/><circle cx="1729.1" cy="623.6" r="3" fill="#8ce8ff" opacity="0.78"/><circle cx="1836.3" cy="636.3" r="4" fill="#8ce8ff" opacity="0.66"/><circle cx="1938.7" cy="699.8" r="2" fill="#8ce8ff" opacity="0.53"/></g>
  </g>
  <path d="M 120 1280 H 720 M 1840 1280 H 2440" stroke="#8ce8ff" stroke-width="2" opacity="0.31"/>
  <path d="M 120 160 H 520 M 2040 160 H 2440" stroke="#d9ff5f" stroke-width="2" opacity="0.24"/>
</svg>
