<svg xmlns="http://www.w3.org/2000/svg" xmlns:xlink="http://www.w3.org/1999/xlink" width="2560" height="1440" viewBox="0 0 2560 1440">
  <defs>
    <radialGradient id="coreGlow" cx="50%" cy="50%" r="50%">
      <stop offset="0%" stop-color="#d9ff5f" stop-opacity="0.34"/>
      <stop offset="42%" stop-color="#51dfff" stop-opacity="0.15"/>
      <stop offset="100%" stop-color="#051018" stop-opacity="0"/>
    </radialGradient>
    <linearGradient id="scan" x1="0" y1="0" x2="1" y2="1">
      <stop offset="0%" stop-color="#8ce8ff" stop-opacity="0"/>
      <stop offset="48%" stop-color="#8ce8ff" stop-opacity="0.30"/>
      <stop offset="100%" stop-color="#d9ff5f" stop-opacity="0"/>
    </linearGradient>
  </defs>
  <rect width="2560" height="1440" fill="#071016"/>
  <image x="0" y="0" width="2560" height="1440" preserveAspectRatio="xMidYMid slice" opacity="1.00" xlink:href="/ai-core-style-frame.jpg"/>
  <rect width="2560" height="1440" fill="#050b11" opacity="0.18"/>
  <g transform="translate(1280 720) scale(1.0000) translate(-1280 -720)">
    <circle cx="1280" cy="720" r="580" fill="url(#coreGlow)"/>
    <g transform="rotate(8.89 1280 720)" fill="none">
      <ellipse cx="1280" cy="720" rx="310" ry="170" stroke="#8ce8ff" stroke-width="3" opacity="0.62"/>
      <ellipse cx="1280" cy="720" rx="430" ry="235" stroke="#8ce8ff" stroke-width="2" stroke-dasharray="18 16" opacity="0.45"/>
      <ellipse cx="1280" cy="720" rx="590" ry="325" stroke="#d9ff5f" stroke-width="2" stroke-dasharray="5 28" opacity="0.32"/>
      <ellipse cx="1280" cy="720" rx="720" ry="400" stroke="url(#scan)" stroke-width="4" opacity="0.41"/>
    </g>
    <g><line x1="1515.0" y1="767.0" x2="1956.7" y2="855.2" stroke="#d9ff5f" stroke-width="2" opacity="0.24"/><line x1="1385.8" y1="844.6" x2="1584.6" y2="1078.8" stroke="#8ce8ff" stroke-width="2" opacity="0.24"/><line x1="1194.6" y1="849.2" x2="1034.1" y2="1092.2" stroke="#8ce8ff" stroke-width="2" opacity="0.24"/><line x1="1053.5" y1="778.2" x2="627.6" y2="887.5" stroke="#d9ff5f" stroke-width="2" opacity="0.24"/><line x1="1045.0" y1="673.0" x2="603.3" y2="584.8" stroke="#8ce8ff" stroke-width="2" opacity="0.24"/><line x1="1174.2" y1="595.4" x2="975.4" y2="361.2" stroke="#8ce8ff" stroke-width="2" opacity="0.24"/><line x1="1365.4" y1="590.8" x2="1525.9" y2="347.8" stroke="#d9ff5f" stroke-width="2" opacity="0.24"/><line x1="1506.5" y1="661.8" x2="1932.4" y2="552.5" stroke="#8ce8ff" stroke-width="2" opacity="0.24"/><circle cx="1520.4" cy="753.6" r="2" fill="#d9ff5f" opacity="0.90"/><circle cx="1580.0" cy="809.8" r="3" fill="#8ce8ff" opacity="1.00"/><circle cx="1609.3" cy="888.1" r="4" fill="#8ce8ff" opacity="1.00"/><circle cx="1584.4" cy="979.4" r="2" fill="#8ce8ff" opacity="1.00"/><circle cx="1645.3" cy="1024.9" r="3" fill="#8ce8ff" opacity="0.87"/><circle cx="1525.8" cy="1110.8" r="4" fill="#d9ff5f" opacity="0.80"/><circle cx="1302.8" cy="869.9" r="2" fill="#8ce8ff" opacity="0.87"/><circle cx="1220.0" cy="916.9" r="3" fill="#8ce8ff" opacity="1.00"/><circle cx="1207.2" cy="973.8" r="4" fill="#8ce8ff" opacity="1.00"/><circle cx="1051.1" cy="1012.8" r="2" fill="#8ce8ff" opacity="1.00"/><circle cx="861.9" cy="1019.0" r="3" fill="#d9ff5f" opacity="0.91"/><circle cx="668.4" cy="984.1" r="4" fill="#8ce8ff" opacity="0.81"/><circle cx="1046.1" cy="823.0" r="2" fill="#8ce8ff" opacity="0.83"/><circle cx="928.7" cy="807.6" r="3" fill="#8ce8ff" opacity="0.97"/><circle cx="801.7" cy="766.8" r="4" fill="#8ce8ff" opacity="1.00"/><circle cx="684.5" cy="695.9" r="2" fill="#d9ff5f" opacity="1.00"/><circle cx="575.0" cy="695.1" r="3" fill="#8ce8ff" opacity="0.95"/><circle cx="516.6" cy="583.8" r="4" fill="#8ce8ff" opacity="0.83"/><circle cx="1004.2" cy="624.2" r="2" fill="#8ce8ff" opacity="0.81"/><circle cx="998.4" cy="556.4" r="3" fill="#8ce8ff" opacity="0.93"/><circle cx="929.1" cy="519.9" r="4" fill="#d9ff5f" opacity="1.00"/><circle cx="975.7" cy="426.3" r="2" fill="#8ce8ff" opacity="1.00"/><circle cx="1087.5" cy="335.0" r="3" fill="#8ce8ff" opacity="0.99"/><circle cx="1264.4" cy="265.6" r="4" fill="#8ce8ff" opacity="0.85"/><circle cx="1270.0" cy="526.2" r="2" fill="#8ce8ff" opacity="0.80"/><circle cx="1375.4" cy="486.8" r="3" fill="#d9ff5f" opacity="0.89"/><circle cx="1518.7" cy="462.1" r="4" fill="#8ce8ff" opacity="1.00"/><circle cx="1697.1" cy="458.6" r="2" fill="#8ce8ff" opacity="1.00"/><circle cx="1765.9" cy="409.7" r="3" fill="#8ce8ff" opacity="1.00"/><circle cx="1516.8" cy="628.9" r="4" fill="#8ce8ff" opacity="0.89"/><circle cx="1634.3" cy="646.5" r="2" fill="#d9ff5f" opacity="0.80"/><circle cx="1737.5" cy="691.9" r="3" fill="#8ce8ff" opacity="0.85"/><circle cx="1824.2" cy="683.7" r="4" fill="#8ce8ff" opacity="0.99"/><circle cx="1925.1" cy="766.0" r="2" fill="#8ce8ff" opacity="1.00"/></g>
  </g>
  <path d="M 120 1280 H 720 M 1840 1280 H 2440" stroke="#8ce8ff" stroke-width="2" opacity="0.41"/>
  <path d="M 120 160 H 520 M 2040 160 H 2440" stroke="#d9ff5f" stroke-width="2" opacity="0.32"/>
</svg>
