<svg xmlns="http://www.w3.org/2000/svg" xmlns:xlink="http://www.w3.org/1999/xlink" width="2560" height="1440" viewBox="0 0 2560 1440">
  <defs>
    <radialGradient id="coreGlow" cx="50%" cy="50%" r="50%">
      <stop offset="0%" stop-color="#d9ff5f" stop-opacity="0.30"/>
      <stop offset="42%" stop-color="#51dfff" stop-opacity="0.14"/>
      <stop offset="100%" stop-color="#051018" stop-opacity="0"/>
    </radialGradient>
    <linearGradient id="scan" x1="0" y1="0" x2="1" y2="1">
      <stop offset="0%" stop-color="#8ce8ff" stop-opacity="0"/>
      <stop offset="48%" stop-color="#8ce8ff" stop-opacity="0.27"/>
      <stop offset="100%" stop-color="#d9ff5f" stop-opacity="0"/>
    </linearGradient>
  </defs>
  <rect width="2560" height="1440" fill="#071016"/>
  <image x="0" y="0" width="2560" height="1440" preserveAspectRatio="xMidYMid slice" opacity="0.97" xlink:href="/ai-core-style-frame.jpg"/>
  <rect width="2560" height="1440" fill="#050b11" opacity="0.18"/>
  <g transform="translate(1280 720) scale(0.9783) translate(-1280 -720)">
    <circle cx="1280" cy="720" r="580" fill="url(#coreGlow)"/>
    <g transform="rotate(-0.42 1280 720)" fill="none">
      <ellipse cx="1280" cy="720" rx="310" ry="170" stroke="#8ce8ff" stroke-width="3" opacity="0.55"/>
      <ellipse cx="1280" cy="720" rx="430" ry="235" stroke="#8ce8ff" stroke-width="2" stroke-dasharray="18 16" opacity="0.39"/>
      <ellipse cx="1280" cy="720" rx="590" ry="325" stroke="#d9ff5f" stroke-width="2" stroke-dasharray="5 28" opacity="0.28"/>
      <ellipse cx="1280" cy="720" rx="720" ry="400" stroke="url(#scan)" stroke-width="4" opacity="0.36"/>
    </g>
    <g><line x1="1524.3" y1="749.2" x2="1983.6" y2="804.0" stroke="#d9ff5f" stroke-width="2" opacity="0.21"/><line x1="1415.2" y1="835.6" x2="1669.5" y2="1053.1" stroke="#8ce8ff" stroke-width="2" opacity="0.21"/><line x1="1227.0" y1="854.4" x2="1127.2" y2="1107.0" stroke="#8ce8ff" stroke-width="2" opacity="0.21"/><line x1="1069.7" y1="794.4" x2="674.5" y2="934.2" stroke="#d9ff5f" stroke-width="2" opacity="0.21"/><line x1="1035.7" y1="690.8" x2="576.4" y2="636.0" stroke="#8ce8ff" stroke-width="2" opacity="0.21"/><line x1="1144.8" y1="604.4" x2="890.5" y2="386.9" stroke="#8ce8ff" stroke-width="2" opacity="0.21"/><line x1="1333.0" y1="585.6" x2="1432.8" y2="333.0" stroke="#d9ff5f" stroke-width="2" opacity="0.21"/><line x1="1490.3" y1="645.6" x2="1885.5" y2="505.8" stroke="#8ce8ff" stroke-width="2" opacity="0.21"/><circle cx="1547.1" cy="742.6" r="2" fill="#d9ff5f" opacity="0.74"/><circle cx="1607.5" cy="791.4" r="3" fill="#8ce8ff" opacity="0.66"/><circle cx="1641.5" cy="856.5" r="4" fill="#8ce8ff" opacity="0.73"/><circle cx="1645.3" cy="938.0" r="2" fill="#8ce8ff" opacity="0.87"/><circle cx="1688.5" cy="998.5" r="3" fill="#8ce8ff" opacity="0.96"/><circle cx="1613.4" cy="1095.4" r="4" fill="#d9ff5f" opacity="0.92"/><circle cx="1347.3" cy="878.1" r="2" fill="#8ce8ff" opacity="0.78"/><circle cx="1282.0" cy="928.3" r="3" fill="#8ce8ff" opacity="0.67"/><circle cx="1252.1" cy="973.8" r="4" fill="#8ce8ff" opacity="0.70"/><circle cx="1123.0" cy="1014.8" r="2" fill="#8ce8ff" opacity="0.83"/><circle cx="954.3" cy="1040.8" r="3" fill="#d9ff5f" opacity="0.95"/><circle cx="758.1" cy="1038.3" r="4" fill="#8ce8ff" opacity="0.94"/><circle cx="1051.1" cy="842.4" r="2" fill="#8ce8ff" opacity="0.82"/><circle cx="933.9" cy="835.9" r="3" fill="#8ce8ff" opacity="0.69"/><circle cx="817.8" cy="804.9" r="4" fill="#8ce8ff" opacity="0.68"/><circle cx="703.5" cy="751.1" r="2" fill="#d9ff5f" opacity="0.79"/><circle cx="594.7" cy="732.1" r="3" fill="#8ce8ff" opacity="0.92"/><circle cx="496.8" cy="636.1" r="4" fill="#8ce8ff" opacity="0.96"/><circle cx="967.3" cy="643.8" r="2" fill="#8ce8ff" opacity="0.86"/><circle cx="934.4" cy="578.1" r="3" fill="#8ce8ff" opacity="0.72"/><circle cx="890.0" cy="536.7" r="4" fill="#d9ff5f" opacity="0.67"/><circle cx="921.4" cy="454.7" r="2" fill="#8ce8ff" opacity="0.75"/><circle cx="996.4" cy="365.7" r="3" fill="#8ce8ff" opacity="0.89"/><circle cx="1125.8" cy="279.3" r="4" fill="#8ce8ff" opacity="0.96"/><circle cx="1234.9" cy="521.6" r="2" fill="#8ce8ff" opacity="0.90"/><circle cx="1325.6" cy="470.0" r="3" fill="#d9ff5f" opacity="0.76"/><circle cx="1452.0" cy="438.9" r="4" fill="#8ce8ff" opacity="0.67"/><circle cx="1605.8" cy="427.1" r="2" fill="#8ce8ff" opacity="0.71"/><circle cx="1696.8" cy="395.2" r="3" fill="#8ce8ff" opacity="0.85"/><circle cx="1483.5" cy="619.5" r="4" fill="#8ce8ff" opacity="0.96"/><circle cx="1615.4" cy="617.5" r="2" fill="#d9ff5f" opacity="0.93"/><circle cx="1742.3" cy="646.2" r="3" fill="#8ce8ff" opacity="0.80"/><circle cx="1832.6" cy="653.0" r="4" fill="#8ce8ff" opacity="0.68"/><circle cx="1928.6" cy="722.7" r="2" fill="#8ce8ff" opacity="0.69"/></g>
  </g>
  <path d="M 120 1280 H 720 M 1840 1280 H 2440" stroke="#8ce8ff" stroke-width="2" opacity="0.36"/>
  <path d="M 120 160 H 520 M 2040 160 H 2440" stroke="#d9ff5f" stroke-width="2" opacity="0.28"/>
</svg>
